HIERARCHY
ROOT Hips
{
  OFFSET -16.644 10.533 -342.216
  CHANNELS 6 Xposition Yposition Zposition Zrotation Xrotation Yrotation
  JOINT LeftUpLeg
  {
    OFFSET 7.585 -7.509 1.921
    CHANNELS 6 Xposition Yposition Zposition Zrotation Xrotation Yrotation
    JOINT LeftLeg
    {
      OFFSET 0.000 -51.116 0.000
      CHANNELS 6 Xposition Yposition Zposition Zrotation Xrotation Yrotation
      JOINT LeftFoot
      {
        OFFSET -0.000 -44.663 -0.000
        CHANNELS 6 Xposition Yposition Zposition Zrotation Xrotation Yrotation
        End Site
        {
          OFFSET 0.000 -10.119 5.842
        }
      }
    }
  }
  JOINT RightUpLeg
  {
    OFFSET -7.543 -7.540 0.707
    CHANNELS 6 Xposition Yposition Zposition Zrotation Xrotation Yrotation
    JOINT RightLeg
    {
      OFFSET -0.000 -53.177 0.000
      CHANNELS 6 Xposition Yposition Zposition Zrotation Xrotation Yrotation
      JOINT RightFoot
      {
        OFFSET -0.000 -40.478 -0.000
        CHANNELS 6 Xposition Yposition Zposition Zrotation Xrotation Yrotation
        End Site
        {
          OFFSET 0.000 -10.682 6.167
        }
      }
    }
  }
  JOINT Spine
  {
    OFFSET 0.000 5.969 -5.969
    CHANNELS 6 Xposition Yposition Zposition Zrotation Xrotation Yrotation
    JOINT LeftShoulder
    {
      OFFSET -0.000 37.684 0.000
      CHANNELS 6 Xposition Yposition Zposition Zrotation Xrotation Yrotation
      JOINT LeftArm
      {
        OFFSET 20.361 0.000 -0.000
        CHANNELS 6 Xposition Yposition Zposition Zrotation Xrotation Yrotation
        JOINT LeftForeArm
        {
          OFFSET 26.294 0.000 0.000
          CHANNELS 6 Xposition Yposition Zposition Zrotation Xrotation Yrotation
          JOINT LeftHand
          {
            OFFSET 27.301 0.000 -0.000
            CHANNELS 6 Xposition Yposition Zposition Zrotation Xrotation Yrotation
            JOINT LeftHandThumb1
            {
            OFFSET 4.970 -0.620 3.390
            CHANNELS 6 Xposition Yposition Zposition Zrotation Xrotation Yrotation
              JOINT LeftHandThumb2
              {
              OFFSET 2.150 -0.000 0.000
              CHANNELS 6 Xposition Yposition Zposition Zrotation Xrotation Yrotation
                JOINT LeftHandThumb3
                {
                OFFSET 2.200 -0.000 0.000
                CHANNELS 6 Xposition Yposition Zposition Zrotation Xrotation Yrotation
                  JOINT LeftHandThumb4
                  {
                  OFFSET 1.700 -0.000 0.000
                  CHANNELS 6 Xposition Yposition Zposition Zrotation Xrotation Yrotation
                  }
                }
              }
            }
            JOINT LeftHandIndex1
            {
            OFFSET 8.730 0.680 2.070
            CHANNELS 6 Xposition Yposition Zposition Zrotation Xrotation Yrotation
              JOINT LeftHandIndex2
              {
              OFFSET 2.670 -0.000 0.000
              CHANNELS 6 Xposition Yposition Zposition Zrotation Xrotation Yrotation
                JOINT LeftHandIndex3
                {
                OFFSET 2.130 -0.000 0.000
                CHANNELS 6 Xposition Yposition Zposition Zrotation Xrotation Yrotation
                  JOINT LeftHandIndex4
                  {
                  OFFSET 1.800 -0.000 0.000
                  CHANNELS 6 Xposition Yposition Zposition Zrotation Xrotation Yrotation
                  }
                }
              }
            }
            JOINT LeftHandMiddle1
            {
            OFFSET 9.220 0.670 0.550
            CHANNELS 6 Xposition Yposition Zposition Zrotation Xrotation Yrotation
              JOINT LeftHandMiddle2
              {
              OFFSET 2.660 -0.000 0.000
              CHANNELS 6 Xposition Yposition Zposition Zrotation Xrotation Yrotation
                JOINT LeftHandMiddle3
                {
                OFFSET 2.280 -0.000 0.000
                CHANNELS 6 Xposition Yposition Zposition Zrotation Xrotation Yrotation
                  JOINT LeftHandMiddle4
                  {
                  OFFSET 1.500 -0.000 0.000
                  CHANNELS 6 Xposition Yposition Zposition Zrotation Xrotation Yrotation
                  }
                }
              }
            }
            JOINT LeftHandRing1
            {
            OFFSET 9.250 0.670 -1.130
            CHANNELS 6 Xposition Yposition Zposition Zrotation Xrotation Yrotation
              JOINT LeftHandRing2
              {
              OFFSET 2.470 -0.000 0.000
              CHANNELS 6 Xposition Yposition Zposition Zrotation Xrotation Yrotation
                JOINT LeftHandRing3
                {
                OFFSET 2.210 -0.000 0.000
                CHANNELS 6 Xposition Yposition Zposition Zrotation Xrotation Yrotation
                  JOINT LeftHandRing4
                  {
                  OFFSET 1.800 -0.000 0.000
                  CHANNELS 6 Xposition Yposition Zposition Zrotation Xrotation Yrotation
                  }
                }
              }
            }
            JOINT LeftHandPinky1
            {
            OFFSET 9.350 0.660 -2.720
            CHANNELS 6 Xposition Yposition Zposition Zrotation Xrotation Yrotation
              JOINT LeftHandPinky2
              {
              OFFSET 1.630 -0.000 0.000
              CHANNELS 6 Xposition Yposition Zposition Zrotation Xrotation Yrotation
                JOINT LeftHandPinky3
                {
                OFFSET 1.710 -0.000 0.000
                CHANNELS 6 Xposition Yposition Zposition Zrotation Xrotation Yrotation
                  JOINT LeftHandPinky4
                  {
                  OFFSET 1.800 -0.000 0.000
                  CHANNELS 6 Xposition Yposition Zposition Zrotation Xrotation Yrotation
                  }
                }
              }
            }
          }
        }
      }
    }
    JOINT RightShoulder
    {
      OFFSET -0.000 37.684 0.000
      CHANNELS 6 Xposition Yposition Zposition Zrotation Xrotation Yrotation
      JOINT RightArm
      {
        OFFSET -20.802 0.000 -0.000
        CHANNELS 6 Xposition Yposition Zposition Zrotation Xrotation Yrotation
        JOINT RightForeArm
        {
          OFFSET -26.097 0.000 0.000
          CHANNELS 6 Xposition Yposition Zposition Zrotation Xrotation Yrotation
          JOINT RightHand
          {
            OFFSET -26.910 0.000 -0.000
            CHANNELS 6 Xposition Yposition Zposition Zrotation Xrotation Yrotation
            JOINT RightHandThumb1
            {
            OFFSET -4.970 -0.620 3.390
            CHANNELS 6 Xposition Yposition Zposition Zrotation Xrotation Yrotation
              JOINT RightHandThumb2
              {
              OFFSET -2.150 0.000 0.000
              CHANNELS 6 Xposition Yposition Zposition Zrotation Xrotation Yrotation
                JOINT RightHandThumb3
                {
                OFFSET -2.200 0.000 0.000
                CHANNELS 6 Xposition Yposition Zposition Zrotation Xrotation Yrotation
                  JOINT RightHandThumb4
                  {
                  OFFSET -1.700 0.000 0.000
                  CHANNELS 6 Xposition Yposition Zposition Zrotation Xrotation Yrotation
                  }
                }
              }
            }
            JOINT RightHandIndex1
            {
            OFFSET -8.730 0.680 2.070
            CHANNELS 6 Xposition Yposition Zposition Zrotation Xrotation Yrotation
              JOINT RightHandIndex2
              {
              OFFSET -2.670 0.000 0.000
              CHANNELS 6 Xposition Yposition Zposition Zrotation Xrotation Yrotation
                JOINT RightHandIndex3
                {
                OFFSET -2.130 0.000 0.000
                CHANNELS 6 Xposition Yposition Zposition Zrotation Xrotation Yrotation
                  JOINT RightHandIndex4
                  {
                  OFFSET -1.800 0.000 0.000
                  CHANNELS 6 Xposition Yposition Zposition Zrotation Xrotation Yrotation
                  }
                }
              }
            }
            JOINT RightHandMiddle1
            {
            OFFSET -9.220 0.670 0.550
            CHANNELS 6 Xposition Yposition Zposition Zrotation Xrotation Yrotation
              JOINT RightHandMiddle2
              {
              OFFSET -2.660 0.000 0.000
              CHANNELS 6 Xposition Yposition Zposition Zrotation Xrotation Yrotation
                JOINT RightHandMiddle3
                {
                OFFSET -2.280 0.000 0.000
                CHANNELS 6 Xposition Yposition Zposition Zrotation Xrotation Yrotation
                  JOINT RightHandMiddle4
                  {
                  OFFSET -1.500 0.000 0.000
                  CHANNELS 6 Xposition Yposition Zposition Zrotation Xrotation Yrotation
                  }
                }
              }
            }
            JOINT RightHandRing1
            {
            OFFSET -9.250 0.670 -1.130
            CHANNELS 6 Xposition Yposition Zposition Zrotation Xrotation Yrotation
              JOINT RightHandRing2
              {
              OFFSET -2.470 0.000 0.000
              CHANNELS 6 Xposition Yposition Zposition Zrotation Xrotation Yrotation
                JOINT RightHandRing3
                {
                OFFSET -2.210 0.000 0.000
                CHANNELS 6 Xposition Yposition Zposition Zrotation Xrotation Yrotation
                  JOINT RightHandRing4
                  {
                  OFFSET -1.800 0.000 0.000
                  CHANNELS 6 Xposition Yposition Zposition Zrotation Xrotation Yrotation
                  }
                }
              }
            }
            JOINT RightHandPinky1
            {
            OFFSET -9.350 0.660 -2.720
            CHANNELS 6 Xposition Yposition Zposition Zrotation Xrotation Yrotation
              JOINT RightHandPinky2
              {
              OFFSET -1.630 0.000 0.000
              CHANNELS 6 Xposition Yposition Zposition Zrotation Xrotation Yrotation
                JOINT RightHandPinky3
                {
                OFFSET -1.710 0.000 0.000
                CHANNELS 6 Xposition Yposition Zposition Zrotation Xrotation Yrotation
                  JOINT RightHandPinky4
                  {
                  OFFSET -1.800 0.000 0.000
                  CHANNELS 6 Xposition Yposition Zposition Zrotation Xrotation Yrotation
                  }
                }
              }
            }
          }
        }
      }
    }
    JOINT Neck
    {
      OFFSET -0.000 37.684 0.000
      CHANNELS 6 Xposition Yposition Zposition Zrotation Xrotation Yrotation
      JOINT Head
      {
        OFFSET -0.000 17.139 -0.000
        CHANNELS 6 Xposition Yposition Zposition Zrotation Xrotation Yrotation
        End Site
        {
          OFFSET -0.000 0.069 -0.000
        }
      }
    }
  }
}
MOTION
Frames:	5
Frame Time:	0.0333333
-22.9736 6.91749 -334.771 0.169717 0.24302 -2.93325 8.18115 -7.88393 2.43382 5.384 -1.35859 -4.35691 5.96046e-06 -50.3876 2.38419e-05 -8.61712 3.16 0.478619 -5.96046e-06 -42.2289 0 10.3085 -19.1227 9.09004 -8.20778 -7.79574 1.15244 -0.810359 1.9109 -4.45176 5.96046e-06 -54.7766 2.38419e-05 4.44074 0.0499449 -0.00387955 -1.19209e-05 -38.6215 -2.38419e-05 4.79414 -25.7516 4.53268 0 6.45224 -6.45227 -0.664661 -3.21574 0.599421 -2.98023e-06 37.6841 2.38419e-05 -30.5841 1.26999e-05 -8.29922 20.7723 8.9407e-06 -2.38419e-05 -44.4421 38.2894 -1.16151 25.624 -2.38419e-05 0 -4.46998e-06 -5.12264e-06 -26.5617 27.1384 2.38419e-05 2.38419e-05 -7.2957 0.162706 -4.48413 0.0062 0.0497 0.0339 0 0 0 0 0.0215 0 0 0 0 0 0.022 0 0 0 0 0 0.017 0 0 0 0 -0.0068 0.0873 0.0207 0 0 0 0 0.0267 0 0 0 0 0 0.0213 0 0 0 0 0 0.018 0 0 0 0 -0.0067 0.0922 0.0055 0 0 0 0 0.0266 0 0 0 0 0 0.0228 0 0 0 0 0 0.015 0 0 0 0 -0.0067 0.0925 -0.0113 0 0 0 0 0.0247 0 0 0 0 0 0.0221 0 0 0 0 0 0.018 0 0 0 0 -0.0066 0.0935 -0.0272 0 0 0 0 0.0163 0 0 0 0 0 0.0171 0 0 0 0 0 0.018 0 0 0 0 -2.98023e-06 37.6841 2.38419e-05 32.295 -3.4151e-06 8.05943 -21.3861 0 0 45.1109 28.4068 1.33051 -28.0876 0 4.76837e-05 1.0104e-05 -1.70755e-06 23.982 -26.9973 4.76837e-05 -2.38419e-05 14.5931 0.0546593 -1.81104 -0.0062 0.0497 0.0339 0 0 0 0 0.0215 0 0 0 0 0 0.022 0 0 0 0 0 0.017 0 0 0 0 0.0068 0.0873 0.0207 0 0 0 0 0.0267 0 0 0 0 0 0.0213 0 0 0 0 0 0.018 0 0 0 0 0.0067 0.0922 0.0055 0 0 0 0 0.0266 0 0 0 0 0 0.0228 0 0 0 0 0 0.015 0 0 0 0 0.0067 0.0925 -0.0113 0 0 0 0 0.0247 0 0 0 0 0 0.0221 0 0 0 0 0 0.018 0 0 0 0 0.0066 0.0935 -0.0272 0 0 0 0 0.0163 0 0 0 0 0 0.0171 0 0 0 0 0 0.018 0 0 0 0 -2.98023e-06 37.6841 2.38419e-05 0.0816528 4.50959 -0.00641955 0 20.2574 0 9.97848e-06 -1.01386e-05 -2.13443e-07 
-22.9736 6.91749 -334.771 0.169717 0.24302 -2.93325 8.18115 -7.88393 2.43382 5.384 -1.35859 -4.35691 5.96046e-06 -50.3876 2.38419e-05 -8.61712 3.16 0.478619 -5.96046e-06 -42.2289 0 10.3085 -19.1227 9.09004 -8.20778 -7.79574 1.15244 -0.810359 1.9109 -4.45176 5.96046e-06 -54.7766 2.38419e-05 4.44074 0.0499449 -0.00387955 -1.19209e-05 -38.6215 -2.38419e-05 4.79414 -25.7516 4.53268 0 6.45224 -6.45227 -0.664661 -3.21574 0.599421 -2.98023e-06 37.6841 2.38419e-05 -30.5841 1.26999e-05 -8.29922 20.7723 8.9407e-06 -2.38419e-05 -44.4421 38.2894 -1.16151 25.624 -2.38419e-05 0 -4.46998e-06 -5.12264e-06 -26.5617 27.1384 2.38419e-05 2.38419e-05 -7.2957 0.162706 -4.48413 0.0062 0.0497 0.0339 0 0 0 0 0.0215 0 0 0 0 0 0.022 0 0 0 0 0 0.017 0 0 0 0 -0.0068 0.0873 0.0207 0 0 0 0 0.0267 0 0 0 0 0 0.0213 0 0 0 0 0 0.018 0 0 0 0 -0.0067 0.0922 0.0055 0 0 0 0 0.0266 0 0 0 0 0 0.0228 0 0 0 0 0 0.015 0 0 0 0 -0.0067 0.0925 -0.0113 0 0 0 0 0.0247 0 0 0 0 0 0.0221 0 0 0 0 0 0.018 0 0 0 0 -0.0066 0.0935 -0.0272 0 0 0 0 0.0163 0 0 0 0 0 0.0171 0 0 0 0 0 0.018 0 0 0 0 -2.98023e-06 37.6841 2.38419e-05 32.295 -3.4151e-06 8.05943 -21.3861 0 0 45.1109 28.4068 1.33051 -28.0876 0 4.76837e-05 1.0104e-05 -1.70755e-06 23.982 -26.9973 4.76837e-05 -2.38419e-05 14.5931 0.0546593 -1.81104 -0.0062 0.0497 0.0339 0 0 0 0 0.0215 0 0 0 0 0 0.022 0 0 0 0 0 0.017 0 0 0 0 0.0068 0.0873 0.0207 0 0 0 0 0.0267 0 0 0 0 0 0.0213 0 0 0 0 0 0.018 0 0 0 0 0.0067 0.0922 0.0055 0 0 0 0 0.0266 0 0 0 0 0 0.0228 0 0 0 0 0 0.015 0 0 0 0 0.0067 0.0925 -0.0113 0 0 0 0 0.0247 0 0 0 0 0 0.0221 0 0 0 0 0 0.018 0 0 0 0 0.0066 0.0935 -0.0272 0 0 0 0 0.0163 0 0 0 0 0 0.0171 0 0 0 0 0 0.018 0 0 0 0 -2.98023e-06 37.6841 2.38419e-05 0.0816528 4.50959 -0.00641955 0 20.2574 0 9.97848e-06 -1.01386e-05 -2.13443e-07 
-22.9099 6.95256 -334.757 0.176866 0.174144 -2.83315 8.17269 -7.86054 2.4322 5.4855 -1.31138 -4.43385 -1.19209e-05 -50.075 2.38419e-05 -8.88461 3.14027 0.490633 -2.98023e-06 -42.617 4.76837e-05 10.3362 -18.9141 9.0872 -8.18148 -7.80069 1.13285 -0.824072 2.07123 -4.5178 5.96046e-06 -54.8145 4.76837e-05 4.35444 -0.142563 0.0108558 5.96046e-06 -38.5527 -2.38419e-05 5.0085 -25.8185 4.75178 0 6.4516 -6.45158 -0.614064 -3.27723 0.542415 -1.19209e-05 37.6841 7.15256e-05 -30.7208 1.25932e-05 -8.41623 20.7835 2.98023e-06 -4.76837e-05 -44.6201 38.4726 -0.673773 25.8127 4.76837e-05 7.15256e-05 -5.25828e-06 -6.83019e-06 -26.1655 26.8543 -4.76837e-05 -4.76837e-05 -6.27785 0.143318 -5.44301 0.0062 0.0497 0.0339 0 0 0 0 0.0215 0 0 0 0 0 0.022 0 0 0 0 0 0.017 0 0 0 0 -0.0068 0.0873 0.0207 0 0 0 0 0.0267 0 0 0 0 0 0.0213 0 0 0 0 0 0.018 0 0 0 0 -0.0067 0.0922 0.0055 0 0 0 0 0.0266 0 0 0 0 0 0.0228 0 0 0 0 0 0.015 0 0 0 0 -0.0067 0.0925 -0.0113 0 0 0 0 0.0247 0 0 0 0 0 0.0221 0 0 0 0 0 0.018 0 0 0 0 -0.0066 0.0935 -0.0272 0 0 0 0 0.0163 0 0 0 0 0 0.0171 0 0 0 0 0 0.018 0 0 0 0 -1.19209e-05 37.6841 7.15256e-05 32.3311 -2.56132e-06 8.20388 -21.3176 0 2.38419e-05 44.2238 27.7082 1.3667 -28.263 -1.19209e-05 -2.38419e-05 7.91255e-06 -5.12264e-06 24.1614 -27.526 3.57628e-05 7.15256e-05 14.5702 0.0432399 -1.71429 -0.0062 0.0497 0.0339 0 0 0 0 0.0215 0 0 0 0 0 0.022 0 0 0 0 0 0.017 0 0 0 0 0.0068 0.0873 0.0207 0 0 0 0 0.0267 0 0 0 0 0 0.0213 0 0 0 0 0 0.018 0 0 0 0 0.0067 0.0922 0.0055 0 0 0 0 0.0266 0 0 0 0 0 0.0228 0 0 0 0 0 0.015 0 0 0 0 0.0067 0.0925 -0.0113 0 0 0 0 0.0247 0 0 0 0 0 0.0221 0 0 0 0 0 0.018 0 0 0 0 0.0066 0.0935 -0.0272 0 0 0 0 0.0163 0 0 0 0 0 0.0171 0 0 0 0 0 0.018 0 0 0 0 -1.19209e-05 37.6841 7.15256e-05 0.138536 4.57797 -0.0110566 2.98023e-06 20.2527 -2.38419e-05 9.97848e-06 -1.01386e-05 0 
-22.9099 6.95256 -334.757 0.176866 0.174144 -2.83315 8.17269 -7.86054 2.4322 5.4855 -1.31138 -4.43385 -1.19209e-05 -50.075 2.38419e-05 -8.88461 3.14027 0.490633 -2.98023e-06 -42.617 4.76837e-05 10.3362 -18.9141 9.0872 -8.18148 -7.80069 1.13285 -0.824072 2.07123 -4.5178 5.96046e-06 -54.8145 4.76837e-05 4.35444 -0.142563 0.0108558 5.96046e-06 -38.5527 -2.38419e-05 5.0085 -25.8185 4.75178 0 6.4516 -6.45158 -0.614064 -3.27723 0.542415 -1.19209e-05 37.6841 7.15256e-05 -30.7208 1.25932e-05 -8.41623 20.7835 2.98023e-06 -4.76837e-05 -44.6201 38.4726 -0.673773 25.8127 4.76837e-05 7.15256e-05 -5.25828e-06 -6.83019e-06 -26.1655 26.8543 -4.76837e-05 -4.76837e-05 -6.27785 0.143318 -5.44301 0.0062 0.0497 0.0339 0 0 0 0 0.0215 0 0 0 0 0 0.022 0 0 0 0 0 0.017 0 0 0 0 -0.0068 0.0873 0.0207 0 0 0 0 0.0267 0 0 0 0 0 0.0213 0 0 0 0 0 0.018 0 0 0 0 -0.0067 0.0922 0.0055 0 0 0 0 0.0266 0 0 0 0 0 0.0228 0 0 0 0 0 0.015 0 0 0 0 -0.0067 0.0925 -0.0113 0 0 0 0 0.0247 0 0 0 0 0 0.0221 0 0 0 0 0 0.018 0 0 0 0 -0.0066 0.0935 -0.0272 0 0 0 0 0.0163 0 0 0 0 0 0.0171 0 0 0 0 0 0.018 0 0 0 0 -1.19209e-05 37.6841 7.15256e-05 32.3311 -2.56132e-06 8.20388 -21.3176 0 2.38419e-05 44.2238 27.7082 1.3667 -28.263 -1.19209e-05 -2.38419e-05 7.91255e-06 -5.12264e-06 24.1614 -27.526 3.57628e-05 7.15256e-05 14.5702 0.0432399 -1.71429 -0.0062 0.0497 0.0339 0 0 0 0 0.0215 0 0 0 0 0 0.022 0 0 0 0 0 0.017 0 0 0 0 0.0068 0.0873 0.0207 0 0 0 0 0.0267 0 0 0 0 0 0.0213 0 0 0 0 0 0.018 0 0 0 0 0.0067 0.0922 0.0055 0 0 0 0 0.0266 0 0 0 0 0 0.0228 0 0 0 0 0 0.015 0 0 0 0 0.0067 0.0925 -0.0113 0 0 0 0 0.0247 0 0 0 0 0 0.0221 0 0 0 0 0 0.018 0 0 0 0 0.0066 0.0935 -0.0272 0 0 0 0 0.0163 0 0 0 0 0 0.0171 0 0 0 0 0 0.018 0 0 0 0 -1.19209e-05 37.6841 7.15256e-05 0.138536 4.57797 -0.0110566 2.98023e-06 20.2527 -2.38419e-05 9.97848e-06 -1.01386e-05 0 
-22.7687 6.98971 -334.792 0.26064 0.205626 -2.60033 8.14252 -7.851 2.43204 5.43341 -1.34549 -4.5156 -1.19209e-05 -50.1155 -2.38419e-05 -8.93169 3.67796 0.577626 -2.98023e-06 -42.8604 -4.76837e-05 10.2849 -19.6423 9.13438 -8.17782 -7.7998 1.11139 -0.975698 2.12556 -4.59401 -1.19209e-05 -54.851 7.15256e-05 4.36539 -0.420177 0.032078 0 -38.4767 -2.38419e-05 5.23771 -25.9794 4.993 8.9407e-06 6.45241 -6.45242 -0.749422 -3.29697 0.733351 -2.98023e-06 37.6841 7.15256e-05 -30.2529 1.15259e-05 -8.20618 20.6484 -8.9407e-06 -4.76837e-05 -44.7369 39.0819 -1.53294 26.1068 0 0 -2.97158e-06 1.70755e-06 -25.0561 26.7109 2.38419e-05 0 -5.22137 0.10062 -6.18057 0.0062 0.0497 0.0339 0 0 0 0 0.0215 0 0 0 0 0 0.022 0 0 0 0 0 0.017 0 0 0 0 -0.0068 0.0873 0.0207 0 0 0 0 0.0267 0 0 0 0 0 0.0213 0 0 0 0 0 0.018 0 0 0 0 -0.0067 0.0922 0.0055 0 0 0 0 0.0266 0 0 0 0 0 0.0228 0 0 0 0 0 0.015 0 0 0 0 -0.0067 0.0925 -0.0113 0 0 0 0 0.0247 0 0 0 0 0 0.0221 0 0 0 0 0 0.018 0 0 0 0 -0.0066 0.0935 -0.0272 0 0 0 0 0.0163 0 0 0 0 0 0.0171 0 0 0 0 0 0.018 0 0 0 0 -2.98023e-06 37.6841 7.15256e-05 32.3291 -2.77476e-06 7.94029 -21.3351 1.19209e-05 -4.76837e-05 42.8753 27.7644 2.0894 -28.4257 1.19209e-05 4.76837e-05 3.75061e-06 0 24.4194 -27.9276 0 0 14.4416 0.0366045 -1.39259 -0.0062 0.0497 0.0339 0 0 0 0 0.0215 0 0 0 0 0 0.022 0 0 0 0 0 0.017 0 0 0 0 0.0068 0.0873 0.0207 0 0 0 0 0.0267 0 0 0 0 0 0.0213 0 0 0 0 0 0.018 0 0 0 0 0.0067 0.0922 0.0055 0 0 0 0 0.0266 0 0 0 0 0 0.0228 0 0 0 0 0 0.015 0 0 0 0 0.0067 0.0925 -0.0113 0 0 0 0 0.0247 0 0 0 0 0 0.0221 0 0 0 0 0 0.018 0 0 0 0 0.0066 0.0935 -0.0272 0 0 0 0 0.0163 0 0 0 0 0 0.0171 0 0 0 0 0 0.018 0 0 0 0 -2.98023e-06 37.6841 7.15256e-05 0.535786 4.31059 -0.0402712 -5.96046e-06 20.2094 0 9.97848e-06 -9.92512e-06 8.53774e-07 
